<?xml version="1.0" encoding="UTF-8" standalone="no"?>
<!DOCTYPE svg PUBLIC "-//W3C//DTD SVG 1.1//EN"
 "http://www.w3.org/Graphics/SVG/1.1/DTD/svg11.dtd">
<!-- Generated by graphviz version 2.47.0 (20210316.0004)
 -->
<!-- Title: dependencies Pages: 1 -->
<svg width="2060pt" height="284pt"
 viewBox="0.00 0.00 2060.00 284.00" xmlns="http://www.w3.org/2000/svg" xmlns:xlink="http://www.w3.org/1999/xlink">
<g id="graph0" class="graph" transform="scale(1 1) rotate(0) translate(4 280)">
<title>dependencies</title>
<polygon fill="white" stroke="transparent" points="-4,4 -4,-280 2056,-280 2056,4 -4,4"/>
<text text-anchor="start" x="1005.01" y="-42.4" font-family="Times-12" font-weight="bold" font-size="14.00">Legend</text>
<polygon fill="#ffffb3" stroke="transparent" points="792,-10 792,-30 812,-30 812,-10 792,-10"/>
<text text-anchor="start" x="815.63" y="-15.4" font-family="Times-12" font-size="14.00"> &#160;Declarations</text>
<polygon fill="#8dd3c7" stroke="transparent" points="905,-10 905,-30 925,-30 925,-10 905,-10"/>
<text text-anchor="start" x="928.73" y="-15.4" font-family="Times-12" font-size="14.00"> &#160;Module</text>
<polygon fill="#80b1d3" stroke="transparent" points="991,-10 991,-30 1011,-30 1011,-10 991,-10"/>
<text text-anchor="start" x="1014.78" y="-15.4" font-family="Times-12" font-size="14.00"> &#160;Bootstrap</text>
<polygon fill="#fdb462" stroke="transparent" points="1088,-10 1088,-30 1108,-30 1108,-10 1088,-10"/>
<text text-anchor="start" x="1111.67" y="-15.4" font-family="Times-12" font-size="14.00"> &#160;Providers</text>
<polygon fill="#fb8072" stroke="transparent" points="1184,-10 1184,-30 1204,-30 1204,-10 1184,-10"/>
<text text-anchor="start" x="1207.73" y="-15.4" font-family="Times-12" font-size="14.00"> &#160;Exports</text>
<g id="clust1" class="cluster">
<title>cluster_AppModule</title>
<polygon fill="none" stroke="black" stroke-dasharray="1,5" points="8,-70 8,-268 2044,-268 2044,-70 8,-70"/>
</g>
<g id="clust14" class="cluster">
<title>cluster_AppModule_imports</title>
<polygon fill="none" stroke="black" points="1892,-78 1892,-130 2036,-130 2036,-78 1892,-78"/>
</g>
<g id="clust16" class="cluster">
<title>cluster_AppModule_bootstrap</title>
<polygon fill="none" stroke="black" points="1015,-208 1015,-260 1139,-260 1139,-208 1015,-208"/>
</g>
<g id="clust2" class="cluster">
<title>cluster_AppModule_declarations</title>
<polygon fill="none" stroke="black" points="16,-78 16,-130 1884,-130 1884,-78 16,-78"/>
</g>
<!-- AppComponent -->
<g id="node1" class="node">
<title>AppComponent</title>
<polygon fill="#ffffb3" stroke="black" points="1875.94,-122 1770.06,-122 1770.06,-86 1875.94,-86 1875.94,-122"/>
<text text-anchor="middle" x="1823" y="-99.8" font-family="Times,serif" font-size="14.00">AppComponent</text>
</g>
<!-- AppModule -->
<g id="node12" class="node">
<title>AppModule</title>
<polygon fill="#8dd3c7" stroke="black" points="1118.66,-187 1115.66,-191 1094.66,-191 1091.66,-187 1035.34,-187 1035.34,-151 1118.66,-151 1118.66,-187"/>
<text text-anchor="middle" x="1077" y="-164.8" font-family="Times,serif" font-size="14.00">AppModule</text>
</g>
<!-- AppComponent&#45;&gt;AppModule -->
<g id="edge1" class="edge">
<title>AppComponent&#45;&gt;AppModule</title>
<path fill="none" stroke="black" d="M1823,-122.28C1823,-143.32 1823,-175 1823,-175 1823,-175 1128.71,-175 1128.71,-175"/>
<polygon fill="black" stroke="black" points="1128.71,-171.5 1118.71,-175 1128.71,-178.5 1128.71,-171.5"/>
</g>
<!-- CompletedpaymentsComponent -->
<g id="node2" class="node">
<title>CompletedpaymentsComponent</title>
<polygon fill="#ffffb3" stroke="black" points="1752.43,-122 1555.57,-122 1555.57,-86 1752.43,-86 1752.43,-122"/>
<text text-anchor="middle" x="1654" y="-99.8" font-family="Times,serif" font-size="14.00">CompletedpaymentsComponent</text>
</g>
<!-- CompletedpaymentsComponent&#45;&gt;AppModule -->
<g id="edge2" class="edge">
<title>CompletedpaymentsComponent&#45;&gt;AppModule</title>
<path fill="none" stroke="black" d="M1654,-122.11C1654,-141.34 1654,-169 1654,-169 1654,-169 1128.96,-169 1128.96,-169"/>
<polygon fill="black" stroke="black" points="1128.96,-165.5 1118.96,-169 1128.96,-172.5 1128.96,-165.5"/>
</g>
<!-- CuringComponent -->
<g id="node3" class="node">
<title>CuringComponent</title>
<polygon fill="#ffffb3" stroke="black" points="1538.22,-122 1417.78,-122 1417.78,-86 1538.22,-86 1538.22,-122"/>
<text text-anchor="middle" x="1478" y="-99.8" font-family="Times,serif" font-size="14.00">CuringComponent</text>
</g>
<!-- CuringComponent&#45;&gt;AppModule -->
<g id="edge3" class="edge">
<title>CuringComponent&#45;&gt;AppModule</title>
<path fill="none" stroke="black" d="M1478,-122.02C1478,-139.37 1478,-163 1478,-163 1478,-163 1128.78,-163 1128.78,-163"/>
<polygon fill="black" stroke="black" points="1128.78,-159.5 1118.78,-163 1128.78,-166.5 1128.78,-159.5"/>
</g>
<!-- CustomerComponent -->
<g id="node4" class="node">
<title>CustomerComponent</title>
<polygon fill="#ffffb3" stroke="black" points="1399.77,-122 1264.23,-122 1264.23,-86 1399.77,-86 1399.77,-122"/>
<text text-anchor="middle" x="1332" y="-99.8" font-family="Times,serif" font-size="14.00">CustomerComponent</text>
</g>
<!-- CustomerComponent&#45;&gt;AppModule -->
<g id="edge4" class="edge">
<title>CustomerComponent&#45;&gt;AppModule</title>
<path fill="none" stroke="black" d="M1332,-122.24C1332,-137.57 1332,-157 1332,-157 1332,-157 1128.82,-157 1128.82,-157"/>
<polygon fill="black" stroke="black" points="1128.82,-153.5 1118.82,-157 1128.82,-160.5 1128.82,-153.5"/>
</g>
<!-- DuePaymentsComponent -->
<g id="node5" class="node">
<title>DuePaymentsComponent</title>
<polygon fill="#ffffb3" stroke="black" points="1246.59,-122 1087.41,-122 1087.41,-86 1246.59,-86 1246.59,-122"/>
<text text-anchor="middle" x="1167" y="-99.8" font-family="Times,serif" font-size="14.00">DuePaymentsComponent</text>
</g>
<!-- DuePaymentsComponent&#45;&gt;AppModule -->
<g id="edge5" class="edge">
<title>DuePaymentsComponent&#45;&gt;AppModule</title>
<path fill="none" stroke="black" d="M1103.14,-122.11C1103.14,-122.11 1103.14,-140.99 1103.14,-140.99"/>
<polygon fill="black" stroke="black" points="1099.64,-140.99 1103.14,-150.99 1106.64,-140.99 1099.64,-140.99"/>
</g>
<!-- FirstremindersComponent -->
<g id="node6" class="node">
<title>FirstremindersComponent</title>
<polygon fill="#ffffb3" stroke="black" points="1069.48,-122 906.52,-122 906.52,-86 1069.48,-86 1069.48,-122"/>
<text text-anchor="middle" x="988" y="-99.8" font-family="Times,serif" font-size="14.00">FirstremindersComponent</text>
</g>
<!-- FirstremindersComponent&#45;&gt;AppModule -->
<g id="edge6" class="edge">
<title>FirstremindersComponent&#45;&gt;AppModule</title>
<path fill="none" stroke="black" d="M1052.33,-122.11C1052.33,-122.11 1052.33,-140.99 1052.33,-140.99"/>
<polygon fill="black" stroke="black" points="1048.83,-140.99 1052.33,-150.99 1055.83,-140.99 1048.83,-140.99"/>
</g>
<!-- LoginComponent -->
<g id="node7" class="node">
<title>LoginComponent</title>
<polygon fill="#ffffb3" stroke="black" points="888.28,-122 773.72,-122 773.72,-86 888.28,-86 888.28,-122"/>
<text text-anchor="middle" x="831" y="-99.8" font-family="Times,serif" font-size="14.00">LoginComponent</text>
</g>
<!-- LoginComponent&#45;&gt;AppModule -->
<g id="edge7" class="edge">
<title>LoginComponent&#45;&gt;AppModule</title>
<path fill="none" stroke="black" d="M831,-122.24C831,-137.57 831,-157 831,-157 831,-157 1025.27,-157 1025.27,-157"/>
<polygon fill="black" stroke="black" points="1025.27,-160.5 1035.27,-157 1025.27,-153.5 1025.27,-160.5"/>
</g>
<!-- NavbarComponent -->
<g id="node8" class="node">
<title>NavbarComponent</title>
<polygon fill="#ffffb3" stroke="black" points="755.03,-122 632.97,-122 632.97,-86 755.03,-86 755.03,-122"/>
<text text-anchor="middle" x="694" y="-99.8" font-family="Times,serif" font-size="14.00">NavbarComponent</text>
</g>
<!-- NavbarComponent&#45;&gt;AppModule -->
<g id="edge8" class="edge">
<title>NavbarComponent&#45;&gt;AppModule</title>
<path fill="none" stroke="black" d="M694,-122.02C694,-139.37 694,-163 694,-163 694,-163 1025.28,-163 1025.28,-163"/>
<polygon fill="black" stroke="black" points="1025.28,-166.5 1035.28,-163 1025.28,-159.5 1025.28,-166.5"/>
</g>
<!-- PaymentactionsComponent -->
<g id="node9" class="node">
<title>PaymentactionsComponent</title>
<polygon fill="#ffffb3" stroke="black" points="614.98,-122 445.02,-122 445.02,-86 614.98,-86 614.98,-122"/>
<text text-anchor="middle" x="530" y="-99.8" font-family="Times,serif" font-size="14.00">PaymentactionsComponent</text>
</g>
<!-- PaymentactionsComponent&#45;&gt;AppModule -->
<g id="edge9" class="edge">
<title>PaymentactionsComponent&#45;&gt;AppModule</title>
<path fill="none" stroke="black" d="M530,-122.11C530,-141.34 530,-169 530,-169 530,-169 1024.99,-169 1024.99,-169"/>
<polygon fill="black" stroke="black" points="1024.99,-172.5 1034.99,-169 1024.99,-165.5 1024.99,-172.5"/>
</g>
<!-- SecondremindersComponent -->
<g id="node10" class="node">
<title>SecondremindersComponent</title>
<polygon fill="#ffffb3" stroke="black" points="427.02,-122 248.98,-122 248.98,-86 427.02,-86 427.02,-122"/>
<text text-anchor="middle" x="338" y="-99.8" font-family="Times,serif" font-size="14.00">SecondremindersComponent</text>
</g>
<!-- SecondremindersComponent&#45;&gt;AppModule -->
<g id="edge10" class="edge">
<title>SecondremindersComponent&#45;&gt;AppModule</title>
<path fill="none" stroke="black" d="M338,-122.28C338,-143.32 338,-175 338,-175 338,-175 1025.15,-175 1025.15,-175"/>
<polygon fill="black" stroke="black" points="1025.15,-178.5 1035.15,-175 1025.15,-171.5 1025.15,-178.5"/>
</g>
<!-- TerminationremindersComponent -->
<g id="node11" class="node">
<title>TerminationremindersComponent</title>
<polygon fill="#ffffb3" stroke="black" points="230.01,-122 23.99,-122 23.99,-86 230.01,-86 230.01,-122"/>
<text text-anchor="middle" x="127" y="-99.8" font-family="Times,serif" font-size="14.00">TerminationremindersComponent</text>
</g>
<!-- TerminationremindersComponent&#45;&gt;AppModule -->
<g id="edge11" class="edge">
<title>TerminationremindersComponent&#45;&gt;AppModule</title>
<path fill="none" stroke="black" d="M127,-122.25C127,-145.02 127,-181 127,-181 127,-181 1025.26,-181 1025.26,-181"/>
<polygon fill="black" stroke="black" points="1025.26,-184.5 1035.26,-181 1025.26,-177.5 1025.26,-184.5"/>
</g>
<!-- AppComponent  -->
<g id="node14" class="node">
<title>AppComponent </title>
<polygon fill="#80b1d3" stroke="black" points="1131.44,-252 1022.56,-252 1022.56,-216 1131.44,-216 1131.44,-252"/>
<text text-anchor="middle" x="1077" y="-229.8" font-family="Times,serif" font-size="14.00">AppComponent </text>
</g>
<!-- AppModule&#45;&gt;AppComponent  -->
<g id="edge13" class="edge">
<title>AppModule&#45;&gt;AppComponent </title>
<path fill="none" stroke="black" stroke-dasharray="1,5" d="M1077,-187.11C1077,-187.11 1077,-205.99 1077,-205.99"/>
<polygon fill="black" stroke="black" points="1073.5,-205.99 1077,-215.99 1080.5,-205.99 1073.5,-205.99"/>
</g>
<!-- AppRoutingModule -->
<g id="node13" class="node">
<title>AppRoutingModule</title>
<polygon fill="#8dd3c7" stroke="black" points="2028.27,-122 2025.27,-126 2004.27,-126 2001.27,-122 1899.73,-122 1899.73,-86 2028.27,-86 2028.27,-122"/>
<text text-anchor="middle" x="1964" y="-99.8" font-family="Times,serif" font-size="14.00">AppRoutingModule</text>
</g>
<!-- AppRoutingModule&#45;&gt;AppModule -->
<g id="edge12" class="edge">
<title>AppRoutingModule&#45;&gt;AppModule</title>
<path fill="none" stroke="black" d="M1964,-122.25C1964,-145.02 1964,-181 1964,-181 1964,-181 1128.89,-181 1128.89,-181"/>
<polygon fill="black" stroke="black" points="1128.89,-177.5 1118.89,-181 1128.89,-184.5 1128.89,-177.5"/>
</g>
</g>
</svg>
